<?xml version="1.0" encoding="UTF-8"?>
<!DOCTYPE svg PUBLIC "-//W3C//DTD SVG 1.1//EN" "http://www.w3.org/Graphics/SVG/1.1/DTD/svg11.dtd">
<!-- Creator: CorelDRAW 2018 (64-Bit) -->
<svg xmlns="http://www.w3.org/2000/svg" xml:space="preserve" width="99.2435mm" height="29.579mm" version="1.1" style="shape-rendering:geometricPrecision; text-rendering:geometricPrecision; image-rendering:optimizeQuality; fill-rule:evenodd; clip-rule:evenodd"
viewBox="0 0 3551.97 1058.65"
 xmlns:xlink="http://www.w3.org/1999/xlink">
 <defs>
  <style type="text/css">
   <![CDATA[
    .fil1 {fill:#325FA1}
    .fil5 {fill:#3A3F47}
    .fil2 {fill:#3B3B3A}
    .fil4 {fill:#3C3C3A}
    .fil3 {fill:#3C3C3C}
    .fil8 {fill:#D10A10}
    .fil6 {fill:#DFD3BF}
    .fil7 {fill:#FAB500}
    .fil9 {fill:#FEFDFC}
    .fil0 {fill:white}
   ]]>
  </style>
 </defs>
 <g id="Слой_x0020_1">
  <metadata id="CorelCorpID_0Corel-Layer"/>
  <ellipse class="fil0" cx="3303.8" cy="275.32" rx="208.4" ry="202.72"/>
  <ellipse class="fil1" cx="3303.8" cy="275.69" rx="225.06" ry="225.64"/>
  <ellipse class="fil0" cx="1150.26" cy="242.94" rx="180.48" ry="175.77"/>
  <path class="fil2" d="M1887.81 794.73c-0.88,21.1 -0.53,15.39 -3.04,40.75 20.79,-8.31 117.75,-20.92 115.19,-36.5 -1.55,-9.41 -11.26,-24.79 -20.7,-27.75 -7.13,-2.24 -79.33,20.93 -91.46,23.5z"/>
  <path class="fil2" d="M399.81 238.53c0,96.35 -81,172.78 -169.69,176.01 -219.98,8 -236.54,-332.5 -8.67,-340.78 36.78,-1.34 95.19,24.17 125.57,43.85 18.68,18.91 49.63,51.89 52.79,120.93zm-399.31 -6.17c-7.89,111.04 79.96,230.27 220.24,234.51l17.71 119.7c0.92,6.21 38.47,-6.15 38.47,-6.15 -4.37,-33.34 -5.25,-58.74 -11.84,-117.35 154.23,-35.93 218.86,-183.33 172.41,-294.82 -33.72,-80.97 -104.15,-145.6 -227.36,-145.21 -51.8,2.31 -102.95,25.89 -141.15,62.04 -41.91,39.67 -68.49,94.27 -68.49,147.28z"/>
  <path class="fil2" d="M1208.17 660.57c-2.93,6.32 96.62,104.08 100.55,104.07 8.95,-0.02 19.28,-16.01 20.7,-23.12 3.08,-15.38 -86.32,-101.55 -96.63,-101.07 -10.18,3.75 -17.59,9.66 -24.62,20.12z"/>
  <path class="fil2" d="M2642.9 506.09c7.48,9.6 36.69,-9.48 34.86,-13.01 -20,-38.55 -50.71,-117.2 -62.29,-116.02 -5.97,0.6 -20.79,3.73 -21.86,16.64 -0.13,1.6 0.52,5.3 0.79,7.07l6.4 14.83c1,2.37 2.98,5.2 4.12,7.62 16.25,34.43 28.53,64.89 37.98,82.87z"/>
  <path class="fil2" d="M746.35 353.13c3.06,11.65 15.36,28.67 18.98,26.12 17.3,-12.2 99.71,-69.82 101.18,-73.45 0.78,-2.51 -1.53,-17.24 -14.07,-28.87 -12.9,-11.97 -108.43,67.24 -106.08,76.2z"/>
  <path class="fil2" d="M2083.91 698.86l27.96 18.03c12.36,-4.2 71.32,-68.22 90.71,-104.48 8.97,-16.78 -22.51,-38.12 -33.49,-21.88 -7.32,10.83 -22.32,26.82 -40.11,52.35 -20.37,23.82 -52.35,51.27 -45.07,55.97z"/>
  <path class="fil3" d="M714.17 568.26l13.76 -99.84c-3.98,-10.45 -33.79,-29.61 -36.21,-16.56l-21.01 112.65 43.46 3.76z"/>
  <path class="fil4" d="M1130.78 451.85c11.32,68.69 5.98,115.06 18.65,112.27l35.2 -7.73c9.02,-1.98 -5.93,-62.25 -10.14,-106.1l-43.71 1.55 0 0z"/>
  <path class="fil2" d="M2240.29 451.28c-11.41,0 -24.59,1.77 -39.2,2.52 -1.74,14.94 -10.5,54.66 -4.92,54.6l33.69 -0.41c3.87,-11.74 6.24,-38.69 10.42,-56.71z"/>
  <path class="fil2" d="M1443.87 818.22c0.66,-28.89 0.57,-24.28 2.43,-43.42 -24.54,2.25 -32.05,0.69 -34.67,1.42 -3.51,0.97 -1.94,3.75 -10.49,33.79 4.7,3.82 28.45,7.09 42.73,8.2z"/>
  <path class="fil5" d="M3216.55 473.25c-0.23,10.02 -13.03,43.65 -3.07,59.86 3.99,6.51 24.91,12.79 27.23,6.51l24.6 -66.35c2.2,-5.95 -49.08,-4.38 -48.76,-0.02z"/>
  <path class="fil2" d="M3079.8 702.65l27.96 18.03c12.36,-4.2 71.32,-68.22 90.71,-104.48 8.97,-16.78 -22.51,-38.12 -33.49,-21.88 -7.32,10.83 -22.32,26.82 -40.11,52.35 -20.37,23.82 -52.35,51.27 -45.07,55.97z"/>
  <path class="fil2" d="M291.33 689.01c-2.93,6.32 94.66,95.58 98.58,95.57 8.95,-0.02 21.26,-7.51 22.68,-14.63 3.08,-15.38 -86.32,-101.55 -96.63,-101.07 -10.18,3.75 -17.59,9.66 -24.62,20.12z"/>
  <ellipse class="fil0" cx="226.13" cy="242.94" rx="180.48" ry="175.77"/>
  <ellipse class="fil1" cx="662.68" cy="788.68" rx="225.06" ry="225.64"/>
  <path class="fil0" d="M606.2 816.1c35.17,3.65 28.67,2.95 57.09,7.67l-30.83 105.54c47.97,-65.32 68.83,-100.44 102.74,-151.95 -34.67,-3.84 -22.25,-2.66 -48.49,-5.79l29.85 -98.54 -71.38 -0.03 -38.98 143.1z"/>
  <ellipse class="fil6" cx="1098.77" cy="237.61" rx="225.06" ry="225.64"/>
  <path class="fil0" d="M967.82 202.09l99.57 -0.24 30.77 -91.78 35.26 90.4 96.31 1.66c-35.41,31.11 -29.83,26.51 -68.68,57.13l25.4 105.89 -88.41 -48.01c-0.26,-0.14 -9.41,4.97 -32.83,18.17 -13.1,7.37 -30.23,18.39 -53.91,29.75l28.11 -105.02c-36.48,-26.81 -37.71,-27.59 -71.57,-57.95z"/>
  <ellipse class="fil7" cx="1665.55" cy="833" rx="225.06" ry="225.64"/>
  <path class="fil0" d="M1543.2 783.25c36.86,31.95 39.11,33.65 71.57,57.95l-28.11 105.02 86.82 -47.92c0.74,-0.41 21.68,15.84 88.33,48.01l-25.4 -105.89c39.39,-30.47 37.74,-29.15 68.68,-57.13l-96.31 -1.66 -34.64 -92.24 -31.38 93.62 -99.57 0.24z"/>
  <ellipse class="fil8" cx="2218.29" cy="225.64" rx="225.06" ry="225.64"/>
  <path class="fil9" d="M2141.14 329.99c11.38,-40.31 17.1,-75.74 25.69,-82.59 8.59,-6.85 61.41,105.32 63.35,110.14 65.1,-16.35 96.2,-54 87.82,-128.95 -39.63,44.47 -84.78,43.08 -68.55,-23.44 18.58,-76.14 20.84,-85.74 -28.61,-132.56 -1.73,2.37 -3.12,3.72 -3.63,7.99 -0.52,4.31 -2.79,6.25 -3.5,8.15 -49.24,132.87 -139.67,108.87 -72.57,241.26z"/>
  <path class="fil2" d="M2421.04 283.05c64.64,1.31 97.83,37.25 109.99,36.7 9.13,-0.41 14.75,-19.9 14.75,-23.58 -4.81,-19.5 -95.74,-55.4 -124.48,-55.66 -0.31,11.96 -0.26,20.8 -0.26,42.54z"/>
  <ellipse class="fil7" cx="2706.93" cy="767.86" rx="225.06" ry="225.64"/>
  <path class="fil0" d="M2575.98 730.05c36.86,31.95 39.11,33.65 71.57,57.95l-28.11 105.02 86.82 -47.92c0.74,-0.41 21.68,15.84 88.33,48.01l-25.4 -105.89c39.39,-30.47 37.74,-29.15 68.68,-57.13l-96.31 -1.66 -34.64 -92.24 -31.38 93.62 -99.57 0.24z"/>
  <path class="fil2" d="M2892.79 754.98c1.62,21.61 0.8,16.71 -0.52,43.31 53.33,0.41 79.5,-10.59 121.81,-20.45 -2.96,-19.87 -3.02,-23.71 -13.36,-38.28 -19.03,1.17 -63.09,11.96 -107.94,15.42z"/>
  <ellipse class="fil0" cx="3303.8" cy="275.69" rx="172.54" ry="172.98"/>
  <path class="fil1" d="M3115.46 248.74c47.82,45.74 95.65,91.49 143.47,137.23 97.68,-92.09 195.36,-184.18 293.03,-276.27 -14.75,-16.54 -29.49,-33.07 -44.23,-49.61 -82.1,77.85 -164.21,155.7 -246.31,233.55 -40.19,-39.19 -80.37,-78.38 -120.56,-117.58 -8.46,24.22 -16.93,48.45 -25.4,72.67z"/>
 </g>
</svg>
