<?xml version="1.0" encoding="UTF-8"?>
<!DOCTYPE svg PUBLIC "-//W3C//DTD SVG 1.1//EN" "http://www.w3.org/Graphics/SVG/1.1/DTD/svg11.dtd">
<!-- Creator: CorelDRAW 2018 (64-Bit) -->
<svg xmlns="http://www.w3.org/2000/svg" xml:space="preserve" width="77.3752mm" height="13.0895mm" version="1.1" style="shape-rendering:geometricPrecision; text-rendering:geometricPrecision; image-rendering:optimizeQuality; fill-rule:evenodd; clip-rule:evenodd"
viewBox="0 0 2059.12 348.34"
 xmlns:xlink="http://www.w3.org/1999/xlink">
 <defs>
  <style type="text/css">
   <![CDATA[
    .fil3 {fill:#325FA0}
    .fil4 {fill:#3B3B3A}
    .fil0 {fill:#3C3C3B}
    .fil1 {fill:#D00A10}
    .fil2 {fill:#F9B400}
    .fil5 {fill:white}
   ]]>
  </style>
 </defs>
 <g id="Слой_x0020_1">
  <metadata id="CorelCorpID_0Corel-Layer"/>
  <ellipse class="fil0" cx="478.08" cy="176.06" rx="84.36" ry="83.6"/>
  <ellipse class="fil0" cx="84.36" cy="176.06" rx="84.36" ry="83.6"/>
  <path class="fil1" d="M1636.51 175.93c0,-95.94 140.87,-95.94 140.87,0 0,91.42 -140.87,90.31 -140.87,0zm-102.32 7.62c-1.36,139.1 184.77,222.74 291.82,117.16 27.38,-27.01 54.1,-64.41 54.18,-117.16l0 -11.42c-0.05,-30.03 -4.58,-47.81 -14.02,-69.76 -6.76,-15.73 -25.07,-40.05 -36.29,-51.28 -108.89,-108.89 -296.17,-32.12 -296.17,121.03l0.48 11.42z"/>
  <path class="fil2" d="M1217.7 175.93c0,-95.94 140.87,-95.94 140.87,0 0,91.42 -140.87,90.31 -140.87,0zm-102.8 -1.89l0 7.68c0,135.99 176.14,226.01 292.27,118.96 27.26,-25.13 53.39,-66.67 54.39,-117.13l0.02 -11.42c-2.13,-97.52 -77.24,-171.1 -171.5,-171.55 -98.05,-0.47 -175.18,74.61 -175.18,173.46z"/>
  <path class="fil3" d="M696.03 172.12l0.15 11.42c-0.53,65.5 51.18,128.08 101.49,149.71 21.71,9.33 40.04,14.12 69.72,14.14 31.09,0.03 48,-3.87 70.89,-13.05 51.64,-20.71 104.29,-83.93 104.29,-150.8l0 -11.59c-0.01,-152.61 -184.49,-228.14 -294.25,-122.75 -11.72,11.25 -30.3,35.96 -37.04,50.52 -9.73,21.02 -15.01,41.38 -15.25,72.4zm173.27 -54.96c32.67,0 59.15,26.24 59.15,58.61 0,32.37 -26.48,58.61 -59.15,58.61 -32.67,0 -59.15,-26.24 -59.15,-58.61 0,-32.37 26.48,-58.61 59.15,-58.61z"/>
  <path class="fil4" d="M696.03 172.12l0.15 11.42c0,0 -0.15,-11.42 -0.15,-11.42z"/>
  <path class="fil4" d="M1880.19 172.12l0 11.42 128.48 0 0.95 34.26 49.49 -41.88c-18.12,-13.61 -30.9,-23.57 -49.49,-38.07l0 34.27 -129.43 0z"/>
  <path class="fil0" d="M869.3 92.46c46.43,0 84.08,37.3 84.08,83.31 0,46.02 -37.64,83.31 -84.08,83.31 -46.43,0 -84.08,-37.3 -84.08,-83.31 0,-46.02 37.64,-83.31 84.08,-83.31zm0 24.7c32.67,0 59.15,26.24 59.15,58.61 0,32.37 -26.48,58.61 -59.15,58.61 -32.67,0 -59.15,-26.24 -59.15,-58.61 0,-32.37 26.48,-58.61 59.15,-58.61z"/>
  <polygon class="fil4" points="1461.59,183.54 1533.96,183.54 1533.96,172.12 1461.59,172.12 "/>
  <polygon class="fil4" points="1042.54,183.54 1114.91,183.54 1114.91,172.12 1042.54,172.12 "/>
  <ellipse class="fil5" cx="478.08" cy="176.06" rx="59.15" ry="58.61"/>
  <ellipse class="fil5" cx="84.36" cy="176.06" rx="59.15" ry="58.61"/>
  <polygon class="fil4" points="562.44,183.54 697.41,183.54 697.41,172.12 562.44,172.12 "/>
  <polygon class="fil4" points="168.73,183.54 393.72,183.54 393.72,172.12 168.73,172.12 "/>
 </g>
</svg>
